# xmcd
#
# Track frame offsets:
#	150
#	19494
#	34385
#	53463
#	72899
#	91899
#	106360
#	121309
#	140544
#	157016
#	178159
#
# Disc length: 2568 seconds
#
# Revision: 0
# Processed by: cddbd v1.5.2PL0 Copyright (c) Steve Scherf et al.
# Submitted via: audiograbber 1.83.01
#
DISCID=970a060b
DTITLE=Raintown - Hope In Troubled Times
DYEAR=2012
DGENRE=country
TTITLE0=Light The Fuse Up
TTITLE1=Ship Of Fools
TTITLE2=Picture Of Us
TTITLE3=Just One Kiss
TTITLE4=Falling Backwards
TTITLE5=Love's Got A Hold On You
TTITLE6=Hope In Troubled Times
TTITLE7=I Won't Dance Alone
TTITLE8=What Matters Most
TTITLE9=The Road Never Ends
TTITLE10=The Last Song
EXTD=
EXTT0=
EXTT1=
EXTT2=
EXTT3=
EXTT4=
EXTT5=
EXTT6=
EXTT7=
EXTT8=
EXTT9=
EXTT10=
PLAYORDER=
